<svg width="64" height="64" viewBox="0 0 64 64" fill="none" xmlns="http://www.w3.org/2000/svg">
<path d="M21.481 22.0636C21.2653 21.5242 20.8984 21.1466 20.3806 20.9308C19.8627 20.715 19.3341 20.715 18.7946 20.9308C16.4643 21.8802 14.4036 23.2504 12.6127 25.0413C10.8218 26.8322 9.45164 28.8929 8.50223 31.2232C8.28646 31.7626 8.28646 32.2913 8.50223 32.8092C8.71801 33.327 9.09561 33.6938 9.63504 33.9096C9.91555 34.0175 10.1745 34.0714 10.4118 34.0714C11.3181 34.0714 11.9654 33.6399 12.3538 32.7768C13.0874 30.9643 14.1501 29.3622 15.5419 27.9704C16.9336 26.5787 18.5357 25.516 20.3482 24.7824C20.8876 24.545 21.2653 24.1674 21.481 23.6496C21.6968 23.1317 21.6968 22.6031 21.481 22.0636ZM51.9699 10.5413L53.4587 12.0301L45.5614 19.8951L47.7623 22.096C48.1722 22.506 48.3772 22.9968 48.3772 23.5686C48.3772 24.1404 48.1722 24.6313 47.7623 25.0413L45.6908 27.1127C47.6112 30.5867 48.5714 34.2872 48.5714 38.2143C48.5714 41.2999 47.9727 44.2506 46.7751 47.0664C45.5776 49.8823 43.9593 52.3097 41.9202 54.3488C39.8811 56.3878 37.4537 58.0061 34.6378 59.2037C31.822 60.4012 28.8713 61 25.7857 61C22.7001 61 19.7494 60.4012 16.9336 59.2037C14.1177 58.0061 11.6903 56.3878 9.65123 54.3488C7.61217 52.3097 5.99386 49.8823 4.79632 47.0664C3.59877 44.2506 3 41.2999 3 38.2143C3 35.1287 3.59877 32.178 4.79632 29.3622C5.99386 26.5463 7.61217 24.1189 9.65123 22.0798C11.6903 20.0407 14.1177 18.4224 16.9336 17.2249C19.7494 16.0273 22.7001 15.4286 25.7857 15.4286C29.7128 15.4286 33.4133 16.3888 36.8873 18.3092L38.9587 16.2377C39.3687 15.8278 39.8596 15.6228 40.4314 15.6228C41.0032 15.6228 41.494 15.8278 41.904 16.2377L44.1049 18.4386L51.9699 10.5413ZM52.2288 8.72879C52.013 8.94457 51.7757 9.05246 51.5167 9.05246C51.2362 9.05246 50.9881 8.94457 50.7723 8.72879L47.827 5.81585C47.6328 5.60007 47.5357 5.35193 47.5357 5.07143C47.5357 4.79092 47.6328 4.54278 47.827 4.32701C48.0428 4.13281 48.2909 4.03571 48.5714 4.03571C48.8519 4.03571 49.1001 4.13281 49.3158 4.32701L52.2288 7.27232C52.4446 7.46652 52.5525 7.70926 52.5525 8.00056C52.5525 8.29185 52.4446 8.5346 52.2288 8.72879ZM59.673 16.173C59.4356 16.3672 59.1875 16.4643 58.9286 16.4643C58.6696 16.4643 58.4215 16.3672 58.1842 16.173L55.2712 13.2277C55.0554 13.0335 54.9475 12.7907 54.9475 12.4994C54.9475 12.2081 55.0554 11.9654 55.2712 11.7712C55.4654 11.5554 55.7081 11.4475 55.9994 11.4475C56.2907 11.4475 56.5335 11.5554 56.7277 11.7712L59.673 14.6842C59.8672 14.8999 59.9643 15.1481 59.9643 15.4286C59.9643 15.7091 59.8672 15.9572 59.673 16.173ZM61 10.25C61 10.5521 60.9029 10.8002 60.7087 10.9944C60.5145 11.1886 60.2664 11.2857 59.9643 11.2857H56.8571C56.5551 11.2857 56.3069 11.1886 56.1127 10.9944C55.9185 10.8002 55.8214 10.5521 55.8214 10.25C55.8214 9.94792 55.9185 9.69978 56.1127 9.50558C56.3069 9.31138 56.5551 9.21429 56.8571 9.21429H59.9643C60.2664 9.21429 60.5145 9.31138 60.7087 9.50558C60.9029 9.69978 61 9.94792 61 10.25ZM54.7857 4.03571V7.14286C54.7857 7.44494 54.6886 7.69308 54.4944 7.88728C54.3002 8.08147 54.0521 8.17857 53.75 8.17857C53.4479 8.17857 53.1998 8.08147 53.0056 7.88728C52.8114 7.69308 52.7143 7.44494 52.7143 7.14286V4.03571C52.7143 3.73363 52.8114 3.48549 53.0056 3.29129C53.1998 3.0971 53.4479 3 53.75 3C54.0521 3 54.3002 3.0971 54.4944 3.29129C54.6886 3.48549 54.7857 3.73363 54.7857 4.03571ZM59.673 5.81585L56.7277 8.72879C56.5119 8.94457 56.2746 9.05246 56.0156 9.05246C55.7351 9.05246 55.487 8.94457 55.2712 8.72879C55.0554 8.5346 54.9475 8.29185 54.9475 8.00056C54.9475 7.70926 55.0554 7.46652 55.2712 7.27232L58.1842 4.32701C58.3999 4.13281 58.6481 4.03571 58.9286 4.03571C59.2091 4.03571 59.4572 4.13281 59.673 4.32701C59.8672 4.54278 59.9643 4.79092 59.9643 5.07143C59.9643 5.35193 59.8672 5.60007 59.673 5.81585Z" fill="#5230DA"/>
</svg>
