<svg width="28" height="28" viewBox="0 0 28 28" fill="none" xmlns="http://www.w3.org/2000/svg">
<g clip-path="url(#clip0_106_328)">
<path d="M14 2C11.6266 2 9.30655 2.70379 7.33316 4.02236C5.35977 5.34094 3.8217 7.21509 2.91345 9.4078C2.0052 11.6005 1.76756 14.0133 2.23058 16.3411C2.6936 18.6689 3.83649 20.8071 5.51472 22.4853C7.19295 24.1635 9.33115 25.3064 11.6589 25.7694C13.9867 26.2324 16.3995 25.9948 18.5922 25.0866C20.7849 24.1783 22.6591 22.6402 23.9776 20.6668C25.2962 18.6935 26 16.3734 26 14C25.9966 10.8185 24.7312 7.76821 22.4815 5.51852C20.2318 3.26883 17.1815 2.00344 14 2ZM14 24C12.0222 24 10.0888 23.4135 8.4443 22.3147C6.79981 21.2159 5.51809 19.6541 4.76121 17.8268C4.00433 15.9996 3.8063 13.9889 4.19215 12.0491C4.578 10.1093 5.53041 8.32746 6.92894 6.92893C8.32746 5.53041 10.1093 4.578 12.0491 4.19215C13.9889 3.8063 15.9996 4.00433 17.8268 4.7612C19.6541 5.51808 21.2159 6.79981 22.3147 8.4443C23.4135 10.0888 24 12.0222 24 14C23.9971 16.6513 22.9426 19.1931 21.0679 21.0679C19.1931 22.9426 16.6513 23.9971 14 24Z" fill="white"/>
<path d="M19.515 16.143L15 13.434V8C15 7.73478 14.8946 7.48043 14.7071 7.29289C14.5196 7.10536 14.2652 7 14 7C13.7348 7 13.4804 7.10536 13.2929 7.29289C13.1054 7.48043 13 7.73478 13 8V14C13.0067 14.1712 13.0542 14.3382 13.1386 14.4873C13.223 14.6364 13.3417 14.7631 13.485 14.857L18.485 17.857C18.5976 17.9275 18.7231 17.9748 18.8542 17.9962C18.9853 18.0176 19.1194 18.0127 19.2486 17.9818C19.3778 17.9508 19.4995 17.8944 19.6066 17.8159C19.7138 17.7373 19.8042 17.6382 19.8726 17.5244C19.941 17.4105 19.9861 17.2842 20.0051 17.1527C20.0242 17.0212 20.0169 16.8873 19.9836 16.7587C19.9503 16.6301 19.8917 16.5094 19.8112 16.4037C19.7308 16.298 19.6301 16.2094 19.515 16.143Z" fill="white"/>
</g>
<defs>
<clipPath id="clip0_106_328">
<rect width="24" height="24" fill="white" transform="translate(2 2)"/>
</clipPath>
</defs>
</svg>
