<svg width="37" height="37" viewBox="0 0 37 37" fill="none" xmlns="http://www.w3.org/2000/svg">
<path d="M27.75 8.47885C24.6667 8.47885 24.6667 7.70801 21.5833 7.70801C18.5 7.70801 18.5 8.47885 15.4167 8.47885C12.3333 8.47885 12.3333 7.70801 9.25 7.70801V19.2705C12.3333 19.2705 12.3333 20.0414 15.4167 20.0414C18.5 20.0414 18.5 19.2705 21.5833 19.2705C24.6667 19.2705 24.6667 20.0414 27.75 20.0414V8.47885Z" fill="#EE4444"/>
<path fill-rule="evenodd" clip-rule="evenodd" d="M9.25065 3.08301C10.1021 3.08301 10.7923 3.77324 10.7923 4.62468V6.23863C11.5954 6.32123 12.1668 6.46251 12.7079 6.59779L12.7306 6.60346C13.4288 6.77807 14.0651 6.93718 15.4173 6.93718C16.7695 6.93718 17.4058 6.77807 18.1041 6.60346L18.1267 6.59779C18.9611 6.38919 19.8675 6.16634 21.584 6.16634C23.3005 6.16634 24.2068 6.38919 25.0412 6.59779L25.0639 6.60346C25.7622 6.77807 26.3985 6.93718 27.7507 6.93718C28.6021 6.93718 29.2923 7.62741 29.2923 8.47884V20.0414C29.2923 20.8928 28.6021 21.5831 27.7507 21.5831C26.0341 21.5831 25.1278 21.3602 24.2934 21.1516L24.2707 21.1459C23.5725 20.9713 22.9362 20.8122 21.584 20.8122C20.2318 20.8122 19.5955 20.9713 18.8972 21.1459L18.8746 21.1516C18.0402 21.3602 17.1338 21.5831 15.4173 21.5831C13.7008 21.5831 12.7945 21.3602 11.9601 21.1516L11.9374 21.1459C11.5752 21.0554 11.2297 20.969 10.7923 20.9068V32.3747C10.7923 33.2262 10.1021 33.9164 9.25065 33.9164C8.39921 33.9164 7.70898 33.2262 7.70898 32.3747V4.62468C7.70898 3.77324 8.39921 3.08301 9.25065 3.08301ZM10.7923 17.8012C11.5954 17.8838 12.1668 18.025 12.7079 18.1603L12.7306 18.166C13.4288 18.3406 14.0651 18.4997 15.4173 18.4997C16.7695 18.4997 17.4058 18.3406 18.1041 18.166L18.1267 18.1603C18.9611 17.9517 19.8675 17.7289 21.584 17.7289C23.3005 17.7289 24.2068 17.9517 25.0412 18.1603L25.0639 18.166C25.4261 18.2566 25.7716 18.343 26.209 18.4052V9.94822C25.4059 9.86563 24.8346 9.72435 24.2934 9.58906L24.2707 9.58339C23.5725 9.40879 22.9362 9.24968 21.584 9.24968C20.2318 9.24968 19.5955 9.40879 18.8972 9.58339L18.8746 9.58906C18.0402 9.79766 17.1338 10.0206 15.4173 10.0206C13.7008 10.0206 12.7945 9.79766 11.9601 9.58906L11.9374 9.58339C11.5752 9.49283 11.2297 9.40643 10.7923 9.34424V17.8012Z" fill="white"/>
</svg>
