<svg width="32" height="32" viewBox="0 0 32 32" fill="none" xmlns="http://www.w3.org/2000/svg">
<path d="M24.5 5.77083C21.4167 5.77083 21.4167 5 18.3333 5C15.25 5 15.25 5.77083 12.1667 5.77083C9.08333 5.77083 9.08333 5 6 5V16.5625C9.08333 16.5625 9.08333 17.3333 12.1667 17.3333C15.25 17.3333 15.25 16.5625 18.3333 16.5625C21.4167 16.5625 21.4167 17.3333 24.5 17.3333V5.77083Z" fill="#5230DA"/>
<path fill-rule="evenodd" clip-rule="evenodd" d="M5.64286 0C6.55018 0 7.28571 0.716344 7.28571 1.6V3.27502C8.14146 3.36074 8.75036 3.50737 9.32702 3.64777L9.35119 3.65366C10.0953 3.83487 10.7733 4 12.2143 4C13.6552 4 14.3333 3.83487 15.0774 3.65366L15.1015 3.64777C15.9907 3.43128 16.9565 3.2 18.7857 3.2C20.6149 3.2 21.5807 3.43128 22.4699 3.64777L22.494 3.65366C23.2382 3.83487 23.9162 4 25.3571 4C26.2645 4 27 4.71634 27 5.6V17.6C27 18.4837 26.2645 19.2 25.3571 19.2C23.5279 19.2 22.5621 18.9687 21.673 18.7522L21.6488 18.7463C20.9047 18.5651 20.2267 18.4 18.7857 18.4C17.3448 18.4 16.6667 18.5651 15.9226 18.7463L15.8985 18.7522C15.0093 18.9687 14.0435 19.2 12.2143 19.2C10.3851 19.2 9.41928 18.9687 8.53012 18.7522L8.50597 18.7463C8.12 18.6524 7.75181 18.5627 7.28571 18.4981V30.4C7.28571 31.2837 6.55018 32 5.64286 32C4.73553 32 4 31.2837 4 30.4V1.6C4 0.716344 4.73553 0 5.64286 0ZM7.28571 15.275C8.14146 15.3607 8.75036 15.5074 9.32702 15.6478L9.35119 15.6537C10.0953 15.8349 10.7733 16 12.2143 16C13.6552 16 14.3333 15.8349 15.0774 15.6537L15.1015 15.6478C15.9907 15.4313 16.9565 15.2 18.7857 15.2C20.6149 15.2 21.5807 15.4313 22.4699 15.6478L22.494 15.6537C22.88 15.7477 23.2482 15.8373 23.7143 15.9019V7.12498C22.8585 7.03926 22.2496 6.89263 21.673 6.75223L21.6488 6.74634C20.9047 6.56513 20.2267 6.4 18.7857 6.4C17.3448 6.4 16.6667 6.56513 15.9226 6.74634L15.8985 6.75223C15.0093 6.96872 14.0435 7.2 12.2143 7.2C10.3851 7.2 9.41928 6.96872 8.53012 6.75223L8.50595 6.74634C8.11999 6.65235 7.75181 6.56268 7.28571 6.49814V15.275Z" fill="#5230DA"/>
</svg>
