<svg width="27" height="27" viewBox="0 0 27 27" fill="none" xmlns="http://www.w3.org/2000/svg">
<g clip-path="url(#clip0_106_324)">
<path d="M11.8626 18.4881C11.7907 18.488 11.7196 18.4738 11.6534 18.4464C11.5873 18.419 11.5275 18.379 11.4775 18.3288C11.4276 18.2785 11.3885 18.219 11.3626 18.1538C11.3368 18.0886 11.3246 18.019 11.327 17.9491C11.3414 17.2324 11.421 16.5184 11.565 15.8154C11.7164 15.0897 11.9926 14.394 12.3819 13.7575C12.8087 13.0902 13.339 12.4911 13.9542 11.9814C14.4511 11.5758 14.9233 11.1424 15.3685 10.6834C15.7462 10.2978 16.0683 9.86401 16.3259 9.39407C16.562 8.94797 16.6826 8.45259 16.6773 7.95091C16.7371 7.20557 16.5014 6.46621 16.0184 5.88445C15.7593 5.64358 15.4511 5.4583 15.1137 5.34063C14.7762 5.22296 14.4172 5.17551 14.0597 5.20136C13.3732 5.19981 12.708 5.4325 12.1799 5.85887C11.9314 6.07117 11.7295 6.33008 11.5865 6.62006C11.4434 6.91005 11.362 7.22515 11.3473 7.54645C11.3342 7.6754 11.2724 7.79506 11.1739 7.88237C11.0754 7.96967 10.9472 8.01844 10.8139 8.01926H6.53597C6.46223 8.019 6.38933 8.00401 6.3218 7.97521C6.25427 7.9464 6.19355 7.90441 6.14342 7.85183C6.09328 7.79926 6.05481 7.73722 6.03038 7.66958C6.00594 7.60194 5.99608 7.53014 6.0014 7.45864C6.04514 6.24468 6.42243 5.06425 7.09408 4.03996C7.80456 3.01176 8.81354 2.21221 9.99271 1.74297C11.2835 1.23303 12.6665 0.980401 14.0597 1.00008C16.1563 0.877256 18.2288 1.48923 19.9009 2.72495C20.6163 3.34747 21.177 4.11977 21.5406 4.98362C21.9043 5.84746 22.0615 6.78029 22.0003 7.71178C22.0221 8.61973 21.8171 9.51929 21.4029 10.3334C20.9875 11.1021 20.4577 11.807 19.8306 12.4254C19.1806 13.0743 18.4691 13.7518 17.6961 14.4577C17.1009 14.9298 16.6385 15.5408 16.3522 16.2338C16.1515 16.8063 16.0324 17.4029 15.9982 18.0069C15.9882 18.1378 15.9276 18.2602 15.8285 18.3494C15.7295 18.4387 15.5994 18.4882 15.4644 18.4881L11.8626 18.4881ZM10.7569 23.2846C10.7472 22.9248 10.8139 22.567 10.953 22.2335C11.092 21.9 11.3004 21.5979 11.565 21.3463C11.8527 21.0819 12.1925 20.8768 12.5638 20.7432C12.9352 20.6097 13.3304 20.5505 13.7259 20.5692C14.1201 20.55 14.5141 20.609 14.8841 20.7426C15.254 20.8762 15.5922 21.0816 15.8779 21.3463C16.3909 21.8667 16.6773 22.5596 16.6773 23.2803C16.6773 24.0011 16.3909 24.694 15.8779 25.2144C15.5935 25.4815 15.2558 25.689 14.8857 25.8242C14.5155 25.9593 14.1208 26.0192 13.7259 26.0001C13.3297 26.0187 12.9338 25.9586 12.5622 25.8235C12.1907 25.6885 11.8514 25.4812 11.565 25.2144C11.3018 24.9635 11.0943 24.6628 10.9554 24.3309C10.8164 23.9989 10.7488 23.6429 10.7569 23.2846Z" fill="#5230DA"/>
</g>
<defs>
<clipPath id="clip0_106_324">
<rect width="16" height="25" fill="white" transform="translate(6 1)"/>
</clipPath>
</defs>
</svg>
